<?xml version="1.0" encoding="UTF-8" standalone="no"?>
<!DOCTYPE svg PUBLIC "-//W3C//DTD SVG 1.1//EN" "http://www.w3.org/Graphics/SVG/1.1/DTD/svg11.dtd">
<svg width="100%" height="100%" viewBox="0 0 595 842" version="1.1" xmlns="http://www.w3.org/2000/svg" xmlns:xlink="http://www.w3.org/1999/xlink" xml:space="preserve" xmlns:serif="http://www.serif.com/" style="fill-rule:evenodd;clip-rule:evenodd;stroke-linecap:round;stroke-linejoin:bevel;">
    <g id="TechDraw">
        <path d="M570.781,216.68c-0,-76.121 -61.801,-137.922 -137.922,-137.922l-275.845,-0c-76.121,-0 -137.922,61.801 -137.922,137.922l-0,408.64c-0,76.121 61.801,137.922 137.922,137.922l275.845,0c76.121,0 137.922,-61.801 137.922,-137.922l-0,-408.64Z" style="fill:#c1c1c1;"/>
        <g id="g10">
        </g>
        <g id="g14">
            <path id="path8" d="M481.752,393.787l-0,171.496c0.007,5.839 -1.057,12.147 -3.483,18.26c-2.405,6.109 -6.191,11.978 -11.046,16.817c-4.839,4.855 -10.709,8.641 -16.817,11.046c-6.113,2.426 -12.421,3.49 -18.26,3.483l-269.292,0c-5.839,0.007 -12.147,-1.057 -18.26,-3.483c-6.108,-2.405 -11.978,-6.191 -16.817,-11.046c-4.855,-4.839 -8.641,-10.708 -11.046,-16.817c-2.426,-6.113 -3.49,-12.421 -3.483,-18.26l0,-171.496c-0.003,-2.502 0.453,-5.206 1.493,-7.826c1.031,-2.618 2.653,-5.133 4.734,-7.207c2.074,-2.081 4.589,-3.703 7.207,-4.734c2.62,-1.04 5.323,-1.496 7.826,-1.493l31.181,0c2.502,0.003 5.206,-0.453 7.826,-1.493c2.618,-1.031 5.133,-2.653 7.207,-4.734c2.081,-2.074 3.703,-4.589 4.734,-7.207c1.04,-2.62 1.496,-5.323 1.493,-7.826l-0,-28.771l-39.685,-39.685l-0,-7.654l35.858,-35.858l228.756,-0l35.858,35.858l0,7.654l-39.685,39.685l0,28.771c-0.003,2.503 0.453,5.206 1.493,7.826c1.031,2.618 2.653,5.133 4.734,7.207c2.074,2.081 4.589,3.703 7.207,4.734c2.62,1.04 5.324,1.496 7.826,1.493l31.181,0c2.503,-0.003 5.206,0.453 7.826,1.493c2.618,1.031 5.133,2.653 7.207,4.734c2.081,2.074 3.703,4.589 4.734,7.207c1.04,2.62 1.496,5.324 1.493,7.826Zm-77.953,43.937c0,-58.708 -47.592,-106.299 -106.299,-106.299c-58.707,-0 -106.299,47.591 -106.299,106.299c-0,58.707 47.592,106.299 106.299,106.299c58.707,0 106.299,-47.592 106.299,-106.299Z" style="fill:#fff;"/>
        </g>
        <g id="g18">
            <path id="path16" d="M183.122,239.299l228.756,-0" style="fill:none;stroke:#000;stroke-width:0.71px;"/>
        </g>
        <g id="g22">
            <path id="path20" d="M147.264,275.157l35.858,-35.858" style="fill:none;stroke:#000;stroke-width:0.71px;"/>
        </g>
        <g id="g26">
            <path id="path24" d="M411.878,239.299l35.858,35.858" style="fill:none;stroke:#000;stroke-width:0.71px;"/>
        </g>
        <g id="g30">
            <path id="path28" d="M147.264,282.811l-0,-7.654" style="fill:none;stroke:#000;stroke-width:0.71px;"/>
        </g>
        <g id="g34">
            <path id="path32" d="M447.736,275.157l0,7.654" style="fill:none;stroke:#000;stroke-width:0.71px;"/>
        </g>
        <g id="g38">
            <path id="path36" d="M186.949,322.496l-39.685,-39.685" style="fill:none;stroke:#000;stroke-width:0.71px;"/>
        </g>
        <g id="g42">
            <path id="path40" d="M447.736,282.811l-39.685,39.685" style="fill:none;stroke:#000;stroke-width:0.71px;"/>
        </g>
        <g id="g46">
            <path id="path44" d="M186.949,351.267l-0,-28.771" style="fill:none;stroke:#000;stroke-width:0.71px;"/>
        </g>
        <g id="g50">
            <path id="path48" d="M408.051,322.496l0,28.771" style="fill:none;stroke:#000;stroke-width:0.71px;"/>
        </g>
        <g id="g54">
            <path id="path52" d="M165.689,372.527c2.502,0.003 5.206,-0.453 7.826,-1.493c2.618,-1.031 5.133,-2.653 7.207,-4.734c2.081,-2.074 3.703,-4.589 4.734,-7.207c1.04,-2.62 1.496,-5.323 1.493,-7.826" style="fill:none;stroke:#000;stroke-width:0.71px;"/>
        </g>
        <g id="g58">
            <path id="path56" d="M408.051,351.267c-0.003,2.503 0.453,5.206 1.493,7.826c1.031,2.618 2.653,5.133 4.734,7.207c2.074,2.081 4.589,3.703 7.207,4.734c2.62,1.04 5.324,1.496 7.826,1.493" style="fill:none;stroke:#000;stroke-width:0.71px;"/>
        </g>
        <g id="g62">
            <path id="path60" d="M134.508,372.527l31.181,0" style="fill:none;stroke:#000;stroke-width:0.71px;"/>
        </g>
        <g id="g66">
            <path id="path64" d="M429.311,372.527l31.181,0" style="fill:none;stroke:#000;stroke-width:0.71px;"/>
        </g>
        <g id="g70">
            <path id="path68" d="M113.248,393.787c-0.003,-2.502 0.453,-5.206 1.493,-7.826c1.031,-2.618 2.653,-5.133 4.734,-7.207c2.074,-2.081 4.589,-3.703 7.207,-4.734c2.62,-1.04 5.323,-1.496 7.826,-1.493" style="fill:none;stroke:#000;stroke-width:0.71px;"/>
        </g>
        <g id="g74">
            <path id="path72" d="M460.492,372.527c2.503,-0.003 5.206,0.453 7.826,1.493c2.618,1.031 5.133,2.653 7.207,4.734c2.081,2.074 3.703,4.589 4.734,7.207c1.04,2.62 1.496,5.324 1.493,7.826" style="fill:none;stroke:#000;stroke-width:0.71px;"/>
        </g>
        <g id="g78">
            <path id="path76" d="M113.248,565.283l0,-171.496" style="fill:none;stroke:#000;stroke-width:0.71px;"/>
        </g>
        <g id="g82">
            <path id="path80" d="M481.752,393.787l-0,171.496" style="fill:none;stroke:#000;stroke-width:0.71px;"/>
        </g>
        <g id="g86">
            <path id="path84" d="M162.854,614.889c-5.839,0.007 -12.147,-1.057 -18.26,-3.483c-6.108,-2.405 -11.978,-6.191 -16.817,-11.046c-4.855,-4.839 -8.641,-10.708 -11.046,-16.817c-2.426,-6.113 -3.49,-12.421 -3.483,-18.26" style="fill:none;stroke:#000;stroke-width:0.71px;"/>
        </g>
        <g id="g90">
            <path id="path88" d="M481.752,565.283c0.007,5.839 -1.057,12.147 -3.483,18.26c-2.405,6.109 -6.191,11.978 -11.046,16.817c-4.839,4.855 -10.709,8.641 -16.817,11.046c-6.113,2.426 -12.421,3.49 -18.26,3.483" style="fill:none;stroke:#000;stroke-width:0.71px;"/>
        </g>
        <g id="g94">
            <path id="path92" d="M432.146,614.889l-269.292,0" style="fill:none;stroke:#000;stroke-width:0.71px;"/>
        </g>
        <g id="g98" opacity="0.9">
            <path id="path96" d="M403.799,437.724c0,58.707 -47.592,106.299 -106.299,106.299c-58.707,0 -106.299,-47.592 -106.299,-106.299c-0,-58.708 47.592,-106.299 106.299,-106.299c58.707,-0 106.299,47.591 106.299,106.299" style="fill:url(#_Linear1);stroke:#000;stroke-width:0.71px;"/>
        </g>
        <g id="g102">
            <path id="path100" d="M409.469,437.724l-223.938,-0" style="fill:none;stroke:#000;stroke-width:0.99px;stroke-dasharray:3.5,7;"/>
        </g>
        <g id="g106">
            <path id="path104" d="M297.5,325.755l0,223.937" style="fill:none;stroke:#000;stroke-width:0.99px;stroke-dasharray:3.5,7;"/>
        </g>
        <g id="g112">
            <g id="text108">
                <path id="path342" d="M261.469,445.901c1.251,-1.175 2.714,-1.835 4.389,-1.98l0.061,-2.299l1.937,0.059l-0.071,2.309c1.631,0.253 3.034,1.004 4.21,2.254c1.397,1.486 2.064,3.259 2,5.32c-0.063,2.061 -0.837,3.79 -2.323,5.187c-1.237,1.163 -2.68,1.817 -4.329,1.962l-0.071,2.309l-1.937,-0.06l0.061,-2.299c-1.638,-0.246 -3.044,-0.994 -4.22,-2.244c-1.41,-1.499 -2.083,-3.279 -2.02,-5.34c0.063,-2.061 0.835,-3.787 2.313,-5.178Zm4.319,-0.014c-1.127,0.148 -2.121,0.627 -2.982,1.436c-1.089,1.024 -1.657,2.299 -1.703,3.825c-0.047,1.513 0.451,2.824 1.495,3.934c0.809,0.86 1.765,1.398 2.868,1.615l0.322,-10.81Zm1.605,10.86c1.115,-0.149 2.095,-0.622 2.942,-1.418c1.096,-1.03 1.667,-2.302 1.713,-3.815c0.047,-1.526 -0.445,-2.837 -1.475,-3.933c-0.809,-0.86 -1.755,-1.402 -2.839,-1.624l-0.341,10.79Z"/>
            </g>
            <g id="text110">
                <path id="path345" d="M283.536,441.813l3.327,-3.129l-10.8,-11.485l-2.937,4.13l-1.745,-1.855l2.917,-4.111l2.037,-1.915l12.545,13.339l3.327,-3.129l1.612,1.714l-8.671,8.155l-1.612,-1.714Z"/>
                <path id="path347" d="M283.796,416.431l7.996,-7.52l1.612,1.715l-6.131,5.765l3.471,3.69c0.201,-0.379 0.427,-0.731 0.678,-1.056c0.246,-0.332 0.516,-0.637 0.812,-0.915c1.68,-1.581 3.444,-2.372 5.292,-2.374c1.847,-0.002 3.51,0.783 4.99,2.356c1.523,1.62 2.204,3.355 2.043,5.204c-0.167,1.842 -1.169,3.626 -3.004,5.352c-0.632,0.594 -1.328,1.147 -2.087,1.659c-0.754,0.506 -1.581,0.98 -2.482,1.422l-1.925,-2.047c0.915,-0.239 1.77,-0.582 2.567,-1.028c0.797,-0.445 1.556,-1.006 2.275,-1.682c1.163,-1.094 1.796,-2.266 1.9,-3.516c0.103,-1.25 -0.338,-2.4 -1.324,-3.448c-0.986,-1.049 -2.106,-1.56 -3.361,-1.533c-1.254,0.027 -2.462,0.587 -3.625,1.681c-0.545,0.512 -1.032,1.084 -1.463,1.717c-0.424,0.627 -0.798,1.333 -1.122,2.12l-7.112,-7.562Z"/>
                <path id="path349" d="M317.583,395.828c-0.32,-1.269 -0.344,-2.406 -0.071,-3.409c0.272,-1.004 0.845,-1.916 1.719,-2.738c1.176,-1.106 2.472,-1.546 3.889,-1.32c1.409,0.219 2.829,1.089 4.257,2.608l6.41,6.816l-1.865,1.754l-6.353,-6.755c-1.018,-1.083 -1.965,-1.706 -2.841,-1.87c-0.876,-0.164 -1.708,0.124 -2.494,0.864c-0.961,0.904 -1.421,1.937 -1.378,3.101c0.042,1.163 0.582,2.296 1.619,3.398l6.002,6.382l-1.865,1.755l-6.353,-6.756c-1.024,-1.089 -1.971,-1.712 -2.841,-1.869c-0.876,-0.164 -1.715,0.13 -2.514,0.882c-0.948,0.892 -1.398,1.922 -1.349,3.092c0.043,1.163 0.579,2.293 1.61,3.389l6.002,6.382l-1.865,1.754l-10.62,-11.293l1.865,-1.754l1.65,1.755c-0.228,-1.091 -0.201,-2.079 0.081,-2.965c0.282,-0.885 0.829,-1.711 1.643,-2.476c0.82,-0.771 1.712,-1.217 2.675,-1.337c0.97,-0.127 1.966,0.076 2.987,0.61Z"/>
                <path id="path351" d="M337.698,376.911c-0.32,-1.269 -0.344,-2.406 -0.071,-3.409c0.272,-1.004 0.845,-1.916 1.719,-2.738c1.176,-1.106 2.473,-1.546 3.889,-1.32c1.409,0.219 2.829,1.089 4.257,2.608l6.41,6.816l-1.865,1.754l-6.353,-6.755c-1.018,-1.083 -1.965,-1.706 -2.841,-1.87c-0.876,-0.164 -1.708,0.124 -2.494,0.864c-0.961,0.904 -1.421,1.937 -1.378,3.101c0.043,1.163 0.582,2.296 1.619,3.398l6.002,6.382l-1.865,1.755l-6.353,-6.756c-1.024,-1.089 -1.971,-1.712 -2.841,-1.869c-0.876,-0.164 -1.714,0.13 -2.514,0.882c-0.948,0.892 -1.397,1.922 -1.349,3.092c0.043,1.163 0.58,2.293 1.61,3.389l6.002,6.382l-1.865,1.754l-10.62,-11.293l1.865,-1.754l1.65,1.755c-0.228,-1.091 -0.2,-2.079 0.081,-2.965c0.282,-0.885 0.83,-1.711 1.643,-2.476c0.82,-0.771 1.712,-1.217 2.675,-1.337c0.97,-0.127 1.966,0.076 2.987,0.61Z"/>
            </g>
        </g>
        <g id="g116">
            <path id="path114" d="M220.064,510.547l154.872,-145.646" style="fill:none;stroke:#000;stroke-width:0.37px;"/>
        </g>
        <g id="g120">
            <path id="path118" d="M374.937,364.901l-11.943,7.989l3.236,3.441l8.707,-11.43" style="stroke:#000;stroke-width:0.37px;"/>
        </g>
        <g id="g124">
            <path id="path122" d="M220.064,510.548l11.943,-7.989l-3.236,-3.442l-8.707,11.431" style="stroke:#000;stroke-width:0.37px;"/>
        </g>
        <g id="g128">
            <g id="text126">
                <path id="path354" d="M518.091,369.606l0,-4.568l-15.765,0l0.997,4.969l-2.547,0l-0.997,-4.941l0,-2.796l18.312,-0l0,-4.568l2.353,0l0,11.904l-2.353,-0Z"/>
                <path id="path356" d="M502.215,344.373l11.032,7.059l-0,-7.059l-11.032,0Zm-2.436,0.734l0,-3.516l13.468,0l-0,-2.948l2.325,0l-0,2.948l4.872,0l0,2.782l-4.872,0l-0,9.329l-2.699,0l-13.094,-8.595Z"/>
                <path id="path358" d="M507.918,313.3c-1.144,-0.636 -1.989,-1.398 -2.533,-2.284c-0.544,-0.885 -0.817,-1.928 -0.817,-3.128c0,-1.614 0.568,-2.86 1.703,-3.737c1.126,-0.876 2.731,-1.315 4.816,-1.315l9.357,0l0,2.561l-9.273,0c-1.486,0 -2.589,0.263 -3.308,0.789c-0.72,0.526 -1.08,1.329 -1.08,2.408c-0,1.32 0.438,2.363 1.315,3.128c0.876,0.766 2.071,1.149 3.585,1.149l8.761,0l0,2.561l-9.273,-0c-1.495,-0 -2.598,0.263 -3.308,0.789c-0.72,0.526 -1.08,1.338 -1.08,2.436c-0,1.301 0.443,2.334 1.329,3.1c0.876,0.766 2.067,1.149 3.571,1.149l8.761,-0l0,2.561l-15.502,-0l0,-2.561l2.408,-0c-0.95,-0.581 -1.651,-1.278 -2.103,-2.09c-0.453,-0.812 -0.679,-1.776 -0.679,-2.893c0,-1.126 0.286,-2.081 0.858,-2.865c0.573,-0.793 1.403,-1.379 2.492,-1.758Z"/>
                <path id="path360" d="M507.918,285.687c-1.144,-0.636 -1.989,-1.398 -2.533,-2.283c-0.544,-0.886 -0.817,-1.929 -0.817,-3.128c0,-1.615 0.568,-2.861 1.703,-3.738c1.126,-0.876 2.731,-1.314 4.816,-1.314l9.357,-0l0,2.56l-9.273,0c-1.486,0 -2.589,0.263 -3.308,0.789c-0.72,0.526 -1.08,1.329 -1.08,2.408c-0,1.32 0.438,2.363 1.315,3.128c0.876,0.766 2.071,1.149 3.585,1.149l8.761,0l0,2.561l-9.273,-0c-1.495,-0 -2.598,0.263 -3.308,0.789c-0.72,0.526 -1.08,1.338 -1.08,2.436c-0,1.301 0.443,2.334 1.329,3.1c0.876,0.766 2.067,1.149 3.571,1.149l8.761,0l0,2.561l-15.502,-0l0,-2.561l2.408,0c-0.95,-0.581 -1.651,-1.278 -2.103,-2.09c-0.453,-0.812 -0.679,-1.776 -0.679,-2.893c0,-1.125 0.286,-2.08 0.858,-2.865c0.573,-0.793 1.403,-1.379 2.492,-1.758Z"/>
            </g>
        </g>
        <g id="g132">
            <path id="path130" d="M524.285,437.724l-0,-198.425m-114.816,-0l117.764,-0m-117.764,198.425l117.764,-0" style="fill:none;stroke:#000;stroke-width:0.37px;"/>
        </g>
        <g id="g136">
            <path id="path134" d="M524.286,239.299l-2.362,14.173l4.724,-0l-2.362,-14.173" style="stroke:#000;stroke-width:0.37px;"/>
        </g>
        <g id="g140">
            <path id="path138" d="M524.286,437.723l2.362,-14.173l-4.724,-0l2.362,14.173" style="stroke:#000;stroke-width:0.37px;"/>
        </g>
        <g id="g144">
            <g id="text142">
                <path id="path363" d="M271.345,681.357l9.758,-0l0,2.353l-13.121,-0l-0,-2.353c1.061,-1.098 2.505,-2.57 4.332,-4.416c1.836,-1.854 2.99,-3.049 3.46,-3.584c0.895,-1.006 1.518,-1.855 1.869,-2.547c0.36,-0.701 0.54,-1.389 0.54,-2.062c-0,-1.099 -0.388,-1.994 -1.163,-2.686c-0.766,-0.692 -1.767,-1.038 -3.004,-1.038c-0.876,0 -1.803,0.153 -2.782,0.457c-0.968,0.305 -2.007,0.766 -3.114,1.384l0,-2.823c1.126,-0.453 2.178,-0.794 3.156,-1.025c0.978,-0.23 1.873,-0.346 2.685,-0.346c2.141,0 3.848,0.535 5.121,1.606c1.274,1.07 1.91,2.5 1.91,4.291c0,0.849 -0.161,1.656 -0.484,2.422c-0.314,0.756 -0.891,1.651 -1.73,2.685c-0.231,0.268 -0.964,1.043 -2.201,2.325c-1.236,1.274 -2.98,3.059 -5.232,5.357Z"/>
                <path id="path365" d="M293.297,672.263c-1.255,0 -2.251,0.429 -2.99,1.287c-0.729,0.859 -1.093,2.035 -1.093,3.53c-0,1.485 0.364,2.662 1.093,3.529c0.739,0.858 1.735,1.288 2.99,1.288c1.255,-0 2.247,-0.43 2.976,-1.288c0.738,-0.867 1.107,-2.044 1.107,-3.529c0,-1.495 -0.369,-2.671 -1.107,-3.53c-0.729,-0.858 -1.721,-1.287 -2.976,-1.287Zm5.55,-8.761l0,2.547c-0.701,-0.333 -1.411,-0.586 -2.131,-0.762c-0.711,-0.175 -1.417,-0.263 -2.118,-0.263c-1.845,0 -3.257,0.623 -4.235,1.869c-0.969,1.246 -1.523,3.128 -1.661,5.647c0.544,-0.803 1.227,-1.416 2.048,-1.841c0.822,-0.434 1.726,-0.65 2.713,-0.65c2.076,-0 3.714,0.632 4.914,1.896c1.208,1.255 1.813,2.966 1.813,5.135c-0,2.122 -0.628,3.825 -1.883,5.107c-1.254,1.283 -2.925,1.924 -5.01,1.924c-2.39,0 -4.217,-0.913 -5.481,-2.74c-1.264,-1.837 -1.896,-4.494 -1.896,-7.973c-0,-3.266 0.775,-5.868 2.325,-7.806c1.55,-1.947 3.631,-2.921 6.242,-2.921c0.702,0 1.408,0.07 2.118,0.208c0.72,0.138 1.467,0.346 2.242,0.623Z"/>
                <path id="path367" d="M325.727,671.184c0.636,-1.145 1.398,-1.989 2.283,-2.533c0.886,-0.545 1.929,-0.817 3.128,-0.817c1.615,0 2.861,0.567 3.738,1.702c0.876,1.126 1.314,2.732 1.314,4.817l0,9.357l-2.56,-0l-0,-9.274c-0,-1.485 -0.263,-2.588 -0.789,-3.308c-0.526,-0.72 -1.329,-1.079 -2.408,-1.079c-1.32,-0 -2.363,0.438 -3.129,1.314c-0.765,0.877 -1.148,2.072 -1.148,3.585l-0,8.762l-2.561,-0l0,-9.274c0,-1.495 -0.263,-2.597 -0.789,-3.308c-0.526,-0.72 -1.338,-1.079 -2.436,-1.079c-1.301,-0 -2.334,0.442 -3.1,1.328c-0.766,0.877 -1.149,2.067 -1.149,3.571l-0,8.762l-2.561,-0l0,-15.502l2.561,-0l-0,2.408c0.581,-0.95 1.278,-1.652 2.09,-2.104c0.812,-0.452 1.776,-0.678 2.893,-0.678c1.125,0 2.08,0.286 2.865,0.858c0.793,0.572 1.379,1.403 1.758,2.492Z"/>
                <path id="path369" d="M353.339,671.184c0.637,-1.145 1.398,-1.989 2.284,-2.533c0.886,-0.545 1.929,-0.817 3.128,-0.817c1.615,0 2.861,0.567 3.737,1.702c0.877,1.126 1.315,2.732 1.315,4.817l0,9.357l-2.56,-0l-0,-9.274c-0,-1.485 -0.263,-2.588 -0.789,-3.308c-0.526,-0.72 -1.329,-1.079 -2.409,-1.079c-1.319,-0 -2.362,0.438 -3.128,1.314c-0.766,0.877 -1.148,2.072 -1.148,3.585l-0,8.762l-2.561,-0l-0,-9.274c-0,-1.495 -0.263,-2.597 -0.789,-3.308c-0.526,-0.72 -1.338,-1.079 -2.436,-1.079c-1.301,-0 -2.335,0.442 -3.1,1.328c-0.766,0.877 -1.149,2.067 -1.149,3.571l-0,8.762l-2.561,-0l0,-15.502l2.561,-0l-0,2.408c0.581,-0.95 1.278,-1.652 2.09,-2.104c0.812,-0.452 1.776,-0.678 2.893,-0.678c1.125,0 2.08,0.286 2.865,0.858c0.793,0.572 1.379,1.403 1.757,2.492Z"/>
            </g>
        </g>
        <g id="g148">
            <path id="path146" d="M113.248,687.764l368.504,0m-0,-122.481l-0,125.429m-368.504,-125.429l0,125.429" style="fill:none;stroke:#000;stroke-width:0.37px;"/>
        </g>
        <g id="g152">
            <path id="path150" d="M481.752,687.764l-14.173,-2.362l-0,4.724l14.173,-2.362" style="stroke:#000;stroke-width:0.37px;"/>
        </g>
        <g id="g156">
            <path id="path154" d="M113.248,685.764l14.173,2.362l0,-4.724l-14.173,2.362" style="stroke:#000;stroke-width:0.37px;"/>
        </g>
        <g id="g160">
            <g id="text158">
                <path id="path372" d="M74.894,501.48l-0,-9.758l2.353,-0l-0,13.121l-2.353,0c-1.098,-1.061 -2.57,-2.505 -4.416,-4.332c-1.854,-1.836 -3.049,-2.99 -3.584,-3.46c-1.006,-0.895 -1.855,-1.518 -2.547,-1.869c-0.702,-0.36 -1.389,-0.54 -2.063,-0.54c-1.098,0 -1.993,0.388 -2.685,1.163c-0.692,0.766 -1.038,1.767 -1.038,3.004c0,0.876 0.152,1.803 0.457,2.782c0.304,0.968 0.766,2.007 1.384,3.114l-2.824,-0c-0.452,-1.126 -0.793,-2.178 -1.024,-3.156c-0.23,-0.978 -0.346,-1.873 -0.346,-2.685c0,-2.141 0.535,-3.848 1.606,-5.121c1.07,-1.274 2.5,-1.91 4.291,-1.91c0.848,-0 1.656,0.161 2.422,0.484c0.756,0.314 1.651,0.89 2.685,1.73c0.267,0.231 1.043,0.964 2.325,2.201c1.274,1.236 3.059,2.98 5.357,5.232Z"/>
                <path id="path374" d="M65.8,479.528c0,1.255 0.429,2.251 1.287,2.99c0.858,0.729 2.035,1.093 3.53,1.093c1.485,0 2.662,-0.364 3.529,-1.093c0.858,-0.739 1.287,-1.735 1.287,-2.99c0,-1.255 -0.429,-2.247 -1.287,-2.976c-0.867,-0.738 -2.044,-1.107 -3.529,-1.107c-1.495,-0 -2.672,0.369 -3.53,1.107c-0.858,0.729 -1.287,1.721 -1.287,2.976Zm-8.761,-5.55l2.546,-0c-0.332,0.701 -0.585,1.411 -0.761,2.131c-0.175,0.711 -0.263,1.417 -0.263,2.118c0,1.845 0.623,3.257 1.869,4.235c1.245,0.969 3.128,1.523 5.647,1.661c-0.803,-0.544 -1.417,-1.227 -1.841,-2.048c-0.434,-0.822 -0.65,-1.726 -0.65,-2.713c-0,-2.076 0.632,-3.714 1.896,-4.914c1.255,-1.209 2.966,-1.813 5.135,-1.813c2.122,0 3.824,0.628 5.107,1.882c1.283,1.255 1.924,2.926 1.924,5.011c0,2.39 -0.914,4.217 -2.741,5.481c-1.836,1.264 -4.493,1.896 -7.972,1.896c-3.266,0 -5.869,-0.775 -7.806,-2.325c-1.947,-1.55 -2.921,-3.631 -2.921,-6.242c0,-0.702 0.069,-1.408 0.208,-2.118c0.138,-0.72 0.346,-1.467 0.623,-2.242Z"/>
                <path id="path376" d="M73.731,467.818l-0,-2.92l3.516,-0l-0,2.92l-3.516,0Z"/>
                <path id="path378" d="M56.582,458.78l-0,-10.976l2.353,0l-0,8.416l5.066,-0c-0.139,-0.406 -0.24,-0.812 -0.305,-1.218c-0.074,-0.406 -0.11,-0.812 -0.11,-1.218c-0,-2.307 0.632,-4.134 1.896,-5.481c1.264,-1.348 2.976,-2.021 5.135,-2.021c2.224,-0 3.954,0.692 5.19,2.076c1.227,1.384 1.841,3.336 1.841,5.855c0,0.867 -0.074,1.753 -0.221,2.657c-0.148,0.895 -0.37,1.823 -0.665,2.782l-2.81,0c0.453,-0.83 0.789,-1.688 1.011,-2.574c0.221,-0.886 0.332,-1.823 0.332,-2.81c0,-1.596 -0.42,-2.86 -1.26,-3.792c-0.839,-0.932 -1.979,-1.398 -3.418,-1.398c-1.44,-0 -2.579,0.466 -3.419,1.398c-0.84,0.932 -1.26,2.196 -1.26,3.792c0,0.747 0.084,1.495 0.25,2.242c0.166,0.738 0.424,1.495 0.775,2.27l-10.381,0Z"/>
                <path id="path380" d="M64.72,420.053c-1.144,-0.637 -1.988,-1.398 -2.532,-2.284c-0.545,-0.886 -0.817,-1.928 -0.817,-3.128c-0,-1.615 0.567,-2.86 1.702,-3.737c1.126,-0.877 2.732,-1.315 4.817,-1.315l9.357,0l-0,2.561l-9.274,-0c-1.485,-0 -2.588,0.263 -3.308,0.789c-0.72,0.526 -1.079,1.328 -1.079,2.408c-0,1.32 0.438,2.362 1.314,3.128c0.877,0.766 2.072,1.149 3.585,1.149l8.762,-0l-0,2.56l-9.274,0c-1.495,0 -2.597,0.263 -3.308,0.789c-0.72,0.526 -1.079,1.338 -1.079,2.436c-0,1.302 0.442,2.335 1.328,3.101c0.877,0.766 2.067,1.149 3.571,1.149l8.762,-0l-0,2.56l-15.502,0l-0,-2.56l2.408,-0c-0.95,-0.582 -1.652,-1.278 -2.104,-2.09c-0.452,-0.812 -0.678,-1.777 -0.678,-2.893c-0,-1.126 0.286,-2.081 0.858,-2.865c0.572,-0.794 1.403,-1.38 2.491,-1.758Z"/>
                <path id="path382" d="M64.72,392.44c-1.144,-0.637 -1.988,-1.398 -2.532,-2.284c-0.545,-0.886 -0.817,-1.928 -0.817,-3.128c-0,-1.615 0.567,-2.86 1.702,-3.737c1.126,-0.876 2.732,-1.315 4.817,-1.315l9.357,0l-0,2.561l-9.274,-0c-1.485,-0 -2.588,0.263 -3.308,0.789c-0.72,0.526 -1.079,1.329 -1.079,2.408c-0,1.32 0.438,2.362 1.314,3.128c0.877,0.766 2.072,1.149 3.585,1.149l8.762,0l-0,2.561l-9.274,-0c-1.495,-0 -2.597,0.263 -3.308,0.789c-0.72,0.526 -1.079,1.338 -1.079,2.436c-0,1.301 0.442,2.334 1.328,3.1c0.877,0.766 2.067,1.149 3.571,1.149l8.762,-0l-0,2.56l-15.502,0l-0,-2.56l2.408,-0c-0.95,-0.582 -1.652,-1.278 -2.104,-2.09c-0.452,-0.812 -0.678,-1.776 -0.678,-2.893c-0,-1.126 0.286,-2.081 0.858,-2.865c0.572,-0.794 1.403,-1.38 2.491,-1.758Z"/>
            </g>
        </g>
        <g id="g164">
            <path id="path162" d="M81.301,239.299l0,375.59m330.577,0l-333.525,0m333.525,-375.59l-333.525,-0" style="fill:none;stroke:#000;stroke-width:0.37px;"/>
        </g>
        <g id="g168">
            <path id="path166" d="M81.301,614.888l2.362,-14.173l-4.724,-0l2.362,14.173" style="stroke:#000;stroke-width:0.37px;"/>
        </g>
        <g id="g172">
            <path id="path170" d="M81.301,239.299l-2.362,14.173l4.724,-0l-2.362,-14.173" style="stroke:#000;stroke-width:0.37px;"/>
        </g>
        <g id="g176">
            <g id="text174">
                <path id="path385" d="M54.814,154.178l17.257,-0l-0,4.833l-10.863,0l0,4.618l10.215,-0l0,4.833l-10.215,-0l0,10.514l-6.394,-0l-0,-24.798Z"/>
                <path id="path387" d="M85.259,164.177c-1.318,-0 -2.326,0.476 -3.023,1.428c-0.687,0.941 -1.03,2.303 -1.03,4.086c0,1.783 0.343,3.15 1.03,4.102c0.697,0.942 1.705,1.412 3.023,1.412c1.295,0 2.286,-0.47 2.973,-1.412c0.686,-0.952 1.03,-2.319 1.03,-4.102c-0,-1.783 -0.344,-3.145 -1.03,-4.086c-0.687,-0.952 -1.678,-1.428 -2.973,-1.428Zm-0,-4.252c3.2,-0 5.697,0.863 7.49,2.591c1.805,1.727 2.708,4.119 2.708,7.175c-0,3.056 -0.903,5.448 -2.708,7.175c-1.793,1.727 -4.29,2.591 -7.49,2.591c-3.211,0 -5.725,-0.864 -7.541,-2.591c-1.805,-1.727 -2.707,-4.119 -2.707,-7.175c-0,-3.056 0.902,-5.448 2.707,-7.175c1.816,-1.728 4.33,-2.591 7.541,-2.591Z"/>
                <path id="path389" d="M106.269,155.091l0,5.282l6.129,0l0,4.252l-6.129,0l0,7.89c0,0.863 0.172,1.45 0.515,1.76c0.344,0.299 1.024,0.449 2.043,0.449l3.056,-0l0,4.252l-5.099,-0c-2.347,-0 -4.014,-0.488 -4.999,-1.462c-0.975,-0.986 -1.462,-2.652 -1.462,-4.999l0,-7.89l-2.956,0l-0,-4.252l2.956,0l0,-5.282l5.946,0Zm3.206,-3.803l4.7,-0l-2.773,6.245l-3.256,-0l1.329,-6.245Z"/>
                <path id="path391" d="M124.373,170.604c-1.24,0 -2.175,0.211 -2.807,0.632c-0.62,0.42 -0.93,1.04 -0.93,1.86c0,0.753 0.25,1.345 0.748,1.777c0.509,0.421 1.212,0.631 2.109,0.631c1.119,0 2.06,-0.398 2.824,-1.196c0.764,-0.808 1.146,-1.816 1.146,-3.023l-0,-0.681l-3.09,0Zm9.086,-2.242l-0,10.614l-5.996,-0l-0,-2.758c-0.797,1.13 -1.694,1.955 -2.691,2.475c-0.996,0.51 -2.209,0.764 -3.637,0.764c-1.927,0 -3.494,-0.559 -4.701,-1.677c-1.196,-1.13 -1.794,-2.591 -1.794,-4.385c0,-2.182 0.748,-3.782 2.243,-4.8c1.506,-1.019 3.864,-1.528 7.075,-1.528l3.505,-0l-0,-0.465c-0,-0.942 -0.371,-1.628 -1.113,-2.06c-0.742,-0.443 -1.899,-0.664 -3.471,-0.664c-1.274,-0 -2.459,0.127 -3.555,0.382c-1.096,0.254 -2.115,0.636 -3.056,1.146l0,-4.535c1.274,-0.31 2.552,-0.542 3.837,-0.697c1.284,-0.166 2.569,-0.249 3.853,-0.249c3.355,-0 5.775,0.664 7.258,1.993c1.495,1.317 2.243,3.466 2.243,6.444Zm-6.445,-16.592l4.701,-0l-6.129,6.245l-3.255,-0l4.683,-6.245Z"/>
                <path id="path393" d="M138.99,153.132l5.946,-0l-0,14.068l6.843,-6.827l6.909,0l-9.085,8.537l9.799,10.066l-7.208,-0l-7.258,-7.757l-0,7.757l-5.946,-0l-0,-25.844Z"/>
                <path id="path395" d="M190.977,154.959l-0,5.248c-1.362,-0.609 -2.691,-1.068 -3.987,-1.379c-1.295,-0.31 -2.519,-0.465 -3.67,-0.465c-1.528,0 -2.658,0.211 -3.389,0.632c-0.73,0.42 -1.096,1.074 -1.096,1.959c0,0.665 0.244,1.185 0.731,1.562c0.498,0.365 1.395,0.681 2.691,0.946l2.724,0.549c2.757,0.553 4.717,1.395 5.879,2.524c1.163,1.13 1.744,2.735 1.744,4.817c0,2.735 -0.814,4.772 -2.441,6.112c-1.617,1.329 -4.092,1.993 -7.425,1.993c-1.572,0 -3.15,-0.149 -4.733,-0.448c-1.584,-0.299 -3.167,-0.742 -4.751,-1.329l0,-5.398c1.584,0.842 3.112,1.478 4.585,1.91c1.483,0.421 2.912,0.631 4.285,0.631c1.395,0 2.464,-0.232 3.205,-0.697c0.742,-0.465 1.113,-1.13 1.113,-1.993c0,-0.776 -0.254,-1.374 -0.764,-1.794c-0.498,-0.421 -1.5,-0.798 -3.006,-1.13l-2.475,-0.548c-2.48,-0.531 -4.296,-1.378 -5.448,-2.541c-1.14,-1.163 -1.71,-2.73 -1.71,-4.7c-0,-2.47 0.797,-4.369 2.391,-5.697c1.595,-1.329 3.887,-1.994 6.877,-1.994c1.361,0 2.762,0.106 4.202,0.316c1.439,0.199 2.928,0.504 4.468,0.914Z"/>
                <path id="path397" d="M197.952,160.373l5.947,0l-0,18.603l-5.947,-0l0,-18.603Zm0,-7.241l5.947,-0l-0,4.849l-5.947,0l0,-4.849Z"/>
                <path id="path399" d="M228.314,167.648l0,11.328l-5.979,-0l-0,-8.671c-0,-1.605 -0.039,-2.712 -0.116,-3.321c-0.067,-0.609 -0.189,-1.058 -0.366,-1.346c-0.232,-0.387 -0.548,-0.686 -0.947,-0.897c-0.398,-0.221 -0.852,-0.332 -1.362,-0.332c-1.24,0 -2.214,0.482 -2.923,1.445c-0.708,0.952 -1.063,2.276 -1.063,3.97l0,9.152l-5.946,-0l0,-18.603l5.946,0l0,2.724c0.897,-1.085 1.849,-1.882 2.857,-2.392c1.008,-0.52 2.12,-0.78 3.339,-0.78c2.148,-0 3.775,0.659 4.883,1.976c1.118,1.318 1.677,3.233 1.677,5.747Z"/>
                <path id="path401" d="M246.485,175.82c-0.82,1.085 -1.722,1.882 -2.708,2.391c-0.985,0.51 -2.126,0.765 -3.421,0.765c-2.27,-0 -4.147,-0.892 -5.631,-2.675c-1.483,-1.793 -2.225,-4.074 -2.225,-6.843c-0,-2.779 0.742,-5.054 2.225,-6.826c1.484,-1.783 3.361,-2.674 5.631,-2.674c1.295,-0 2.436,0.255 3.421,0.764c0.986,0.509 1.888,1.312 2.708,2.408l-0,-2.757l5.979,0l0,16.726c0,2.989 -0.947,5.27 -2.84,6.843c-1.883,1.583 -4.618,2.375 -8.205,2.375c-1.163,-0 -2.287,-0.089 -3.372,-0.266c-1.085,-0.177 -2.176,-0.448 -3.272,-0.814l0,-4.634c1.041,0.598 2.06,1.041 3.056,1.329c0.997,0.299 1.999,0.448 3.007,0.448c1.948,0 3.377,-0.426 4.285,-1.279c0.908,-0.852 1.362,-2.186 1.362,-4.002l-0,-1.279Zm-3.92,-11.577c-1.229,0 -2.187,0.454 -2.874,1.362c-0.686,0.908 -1.029,2.192 -1.029,3.853c-0,1.706 0.332,3.001 0.996,3.887c0.665,0.875 1.634,1.312 2.907,1.312c1.24,0 2.203,-0.454 2.89,-1.362c0.686,-0.908 1.03,-2.187 1.03,-3.837c-0,-1.661 -0.344,-2.945 -1.03,-3.853c-0.687,-0.908 -1.65,-1.362 -2.89,-1.362Z"/>
                <rect id="path403" x="258.178" y="153.132" width="5.946" height="25.844"/>
                <path id="path405" d="M288.406,169.625l0,1.694l-13.902,-0c0.144,1.395 0.648,2.441 1.512,3.139c0.864,0.697 2.071,1.046 3.621,1.046c1.251,0 2.53,-0.183 3.836,-0.548c1.318,-0.376 2.669,-0.941 4.053,-1.694l0,4.584c-1.406,0.532 -2.812,0.93 -4.219,1.196c-1.406,0.277 -2.812,0.415 -4.218,0.415c-3.367,0 -5.985,-0.852 -7.857,-2.558c-1.86,-1.716 -2.79,-4.119 -2.79,-7.208c0,-3.034 0.914,-5.42 2.741,-7.159c1.838,-1.738 4.362,-2.607 7.573,-2.607c2.924,-0 5.26,0.88 7.01,2.641c1.76,1.76 2.64,4.113 2.64,7.059Zm-6.112,-1.977c0,-1.129 -0.332,-2.037 -0.996,-2.724c-0.654,-0.698 -1.512,-1.046 -2.575,-1.046c-1.151,-0 -2.087,0.326 -2.807,0.98c-0.719,0.642 -1.168,1.572 -1.345,2.79l7.723,0Z"/>
                <path id="path407" d="M314.101,165.173c1.34,0 2.298,-0.249 2.873,-0.747c0.587,-0.498 0.881,-1.318 0.881,-2.458c-0,-1.13 -0.294,-1.938 -0.881,-2.425c-0.575,-0.488 -1.533,-0.731 -2.873,-0.731l-2.691,-0l0,6.361l2.691,0Zm-2.691,4.418l0,9.385l-6.394,-0l-0,-24.798l9.766,-0c3.266,-0 5.658,0.548 7.175,1.644c1.528,1.096 2.292,2.829 2.292,5.199c0,1.639 -0.398,2.984 -1.196,4.036c-0.786,1.052 -1.976,1.827 -3.571,2.325c0.875,0.2 1.656,0.654 2.342,1.362c0.698,0.698 1.401,1.761 2.11,3.189l3.471,7.043l-6.81,-0l-3.023,-6.163c-0.609,-1.24 -1.229,-2.087 -1.86,-2.541c-0.62,-0.454 -1.45,-0.681 -2.491,-0.681l-1.811,0Z"/>
                <path id="path409" d="M339.281,170.604c-1.241,0 -2.176,0.211 -2.807,0.632c-0.62,0.42 -0.931,1.04 -0.931,1.86c0,0.753 0.25,1.345 0.748,1.777c0.509,0.421 1.212,0.631 2.109,0.631c1.119,0 2.06,-0.398 2.824,-1.196c0.764,-0.808 1.146,-1.816 1.146,-3.023l-0,-0.681l-3.089,0Zm9.085,-2.242l-0,10.614l-5.996,-0l-0,-2.758c-0.797,1.13 -1.694,1.955 -2.691,2.475c-0.996,0.51 -2.209,0.764 -3.637,0.764c-1.927,0 -3.494,-0.559 -4.701,-1.677c-1.196,-1.13 -1.793,-2.591 -1.793,-4.385c-0,-2.182 0.747,-3.782 2.242,-4.8c1.506,-1.019 3.864,-1.528 7.075,-1.528l3.505,-0l-0,-0.465c-0,-0.942 -0.371,-1.628 -1.113,-2.06c-0.742,-0.443 -1.899,-0.664 -3.471,-0.664c-1.274,-0 -2.458,0.127 -3.555,0.382c-1.096,0.254 -2.115,0.636 -3.056,1.146l0,-4.535c1.274,-0.31 2.553,-0.542 3.837,-0.697c1.284,-0.166 2.569,-0.249 3.853,-0.249c3.355,-0 5.775,0.664 7.259,1.993c1.494,1.317 2.242,3.466 2.242,6.444Z"/>
                <path id="path411" d="M353.897,160.373l5.946,0l-0,18.603l-5.946,-0l-0,-18.603Zm-0,-7.241l5.946,-0l-0,4.849l-5.946,0l-0,-4.849Z"/>
                <rect id="path413" x="365.556" y="153.132" width="5.946" height="25.844"/>
                <path id="path415" d="M404.372,174.458l-9.999,-0l-1.577,4.518l-6.428,-0l9.185,-24.798l7.623,-0l9.185,24.798l-6.428,-0l-1.561,-4.518Zm-8.404,-4.601l6.793,0l-3.388,-9.866l-3.405,9.866Z"/>
                <path id="path417" d="M428.04,163.097l0,-9.965l5.98,-0l-0,25.844l-5.98,-0l0,-2.691c-0.819,1.096 -1.721,1.899 -2.707,2.408c-0.985,0.51 -2.126,0.764 -3.421,0.764c-2.292,0 -4.175,-0.908 -5.648,-2.724c-1.472,-1.827 -2.209,-4.174 -2.209,-7.042c0,-2.868 0.737,-5.21 2.209,-7.026c1.473,-1.827 3.356,-2.74 5.648,-2.74c1.284,-0 2.419,0.26 3.404,0.78c0.997,0.51 1.905,1.307 2.724,2.392Zm-3.919,12.042c1.273,-0 2.242,-0.465 2.906,-1.395c0.676,-0.931 1.013,-2.281 1.013,-4.053c0,-1.772 -0.337,-3.123 -1.013,-4.053c-0.664,-0.93 -1.633,-1.395 -2.906,-1.395c-1.263,0 -2.232,0.465 -2.907,1.395c-0.664,0.93 -0.997,2.281 -0.997,4.053c0,1.772 0.333,3.122 0.997,4.053c0.675,0.93 1.644,1.395 2.907,1.395Z"/>
                <path id="path419" d="M448.071,170.604c-1.24,0 -2.176,0.211 -2.807,0.632c-0.62,0.42 -0.93,1.04 -0.93,1.86c0,0.753 0.249,1.345 0.748,1.777c0.509,0.421 1.212,0.631 2.109,0.631c1.118,0 2.059,-0.398 2.823,-1.196c0.764,-0.808 1.146,-1.816 1.146,-3.023l0,-0.681l-3.089,0Zm9.085,-2.242l0,10.614l-5.996,-0l0,-2.758c-0.797,1.13 -1.694,1.955 -2.69,2.475c-0.997,0.51 -2.209,0.764 -3.638,0.764c-1.926,0 -3.493,-0.559 -4.7,-1.677c-1.196,-1.13 -1.794,-2.591 -1.794,-4.385c0,-2.182 0.748,-3.782 2.242,-4.8c1.506,-1.019 3.865,-1.528 7.076,-1.528l3.504,-0l0,-0.465c0,-0.942 -0.37,-1.628 -1.112,-2.06c-0.742,-0.443 -1.899,-0.664 -3.472,-0.664c-1.273,-0 -2.458,0.127 -3.554,0.382c-1.096,0.254 -2.115,0.636 -3.056,1.146l-0,-4.535c1.273,-0.31 2.552,-0.542 3.837,-0.697c1.284,-0.166 2.568,-0.249 3.853,-0.249c3.355,-0 5.774,0.664 7.258,1.993c1.495,1.317 2.242,3.466 2.242,6.444Z"/>
                <path id="path421" d="M468.633,176.285l0,9.766l-5.946,0l0,-25.678l5.946,0l0,2.724c0.82,-1.085 1.728,-1.882 2.724,-2.392c0.997,-0.52 2.143,-0.78 3.438,-0.78c2.293,-0 4.175,0.913 5.648,2.74c1.472,1.816 2.209,4.158 2.209,7.026c-0,2.868 -0.737,5.215 -2.209,7.042c-1.473,1.816 -3.355,2.724 -5.648,2.724c-1.295,0 -2.441,-0.254 -3.438,-0.764c-0.996,-0.52 -1.904,-1.323 -2.724,-2.408Zm3.953,-12.042c-1.273,0 -2.253,0.471 -2.939,1.412c-0.676,0.93 -1.014,2.275 -1.014,4.036c0,1.761 0.338,3.111 1.014,4.053c0.686,0.93 1.666,1.395 2.939,1.395c1.274,-0 2.243,-0.465 2.907,-1.395c0.675,-0.931 1.013,-2.281 1.013,-4.053c0,-1.772 -0.338,-3.123 -1.013,-4.053c-0.664,-0.93 -1.633,-1.395 -2.907,-1.395Z"/>
                <path id="path423" d="M493.531,155.091l-0,5.282l6.128,0l0,4.252l-6.128,0l-0,7.89c-0,0.863 0.171,1.45 0.515,1.76c0.343,0.299 1.024,0.449 2.043,0.449l3.056,-0l-0,4.252l-5.099,-0c-2.348,-0 -4.014,-0.488 -5,-1.462c-0.974,-0.986 -1.461,-2.652 -1.461,-4.999l-0,-7.89l-2.957,0l0,-4.252l2.957,0l-0,-5.282l5.946,0Z"/>
                <path id="path425" d="M521.866,169.625l0,1.694l-13.902,-0c0.144,1.395 0.648,2.441 1.512,3.139c0.863,0.697 2.07,1.046 3.62,1.046c1.252,0 2.531,-0.183 3.837,-0.548c1.318,-0.376 2.669,-0.941 4.053,-1.694l-0,4.584c-1.406,0.532 -2.813,0.93 -4.219,1.196c-1.406,0.277 -2.812,0.415 -4.219,0.415c-3.366,0 -5.985,-0.852 -7.856,-2.558c-1.86,-1.716 -2.79,-4.119 -2.79,-7.208c-0,-3.034 0.913,-5.42 2.74,-7.159c1.838,-1.738 4.363,-2.607 7.574,-2.607c2.923,-0 5.26,0.88 7.009,2.641c1.761,1.76 2.641,4.113 2.641,7.059Zm-6.112,-1.977c-0,-1.129 -0.332,-2.037 -0.997,-2.724c-0.653,-0.698 -1.511,-1.046 -2.574,-1.046c-1.152,-0 -2.087,0.326 -2.807,0.98c-0.72,0.642 -1.168,1.572 -1.345,2.79l7.723,0Z"/>
                <path id="path427" d="M540.186,165.439c-0.52,-0.244 -1.041,-0.421 -1.561,-0.532c-0.51,-0.121 -1.024,-0.182 -1.545,-0.182c-1.528,-0 -2.707,0.493 -3.538,1.478c-0.819,0.974 -1.229,2.375 -1.229,4.202l0,8.571l-5.946,-0l0,-18.603l5.946,0l0,3.056c0.764,-1.218 1.639,-2.104 2.625,-2.657c0.996,-0.565 2.186,-0.847 3.571,-0.847c0.199,-0 0.415,0.011 0.647,0.033c0.233,0.011 0.571,0.044 1.013,0.1l0.017,5.381Z"/>
            </g>
        </g>
    </g>
    <defs>
        <linearGradient id="_Linear1" x1="0" y1="0" x2="1" y2="0" gradientUnits="userSpaceOnUse" gradientTransform="matrix(212.598,0,0,212.598,191.201,437.724)"><stop offset="0" style="stop-color:#fbfbfb;stop-opacity:1"/><stop offset="1" style="stop-color:#949494;stop-opacity:1"/></linearGradient>
    </defs>
</svg>
