<?xml version="1.0"?>
<!DOCTYPE svg PUBLIC "-//W3C//DTD SVG 1.1//EN" "http://www.w3.org/Graphics/SVG/1.1/DTD/svg11.dtd">
<svg xmlns="http://www.w3.org/2000/svg" version="1.1" width="26mm" height="28mm" viewBox="-13 -14 26 28">
<g stroke="#000" stroke-width="0.45" fill="none">
<desc>
	NATO Accessory Rail to 15 mm rod adapter,
	concept drawing by G. Adam Stanislav
	for the Foťák project
	( https://github.com/Pantarheon/Fotak ).

	Based on https://en.wikipedia.org/wiki/NATO_Accessory_Rail#Technical_specifications
</desc>
<path id="NAR" d="M-8.07-14h16.14l2.53 2.53v0.54l-2.8 2.8v2.03a1.5 1.5 0 0 0 1.5 1.5h2.2a1.5 1.5 0 0 1 1.5 1.5v12.1a3.5 3.5 0 0 1 -3.5 3.5h-19a3.5 3.5 0 0 1 -3.5 -3.5v-12.1a1.5 1.5 0 0 1 1.5 -1.5h2.2a1.5 1.5 0 0 0 1.5-1.5v-2.03l-2.8-2.8v-0.54z" />
<circle id="rail" r="7.5"/>
</g>
</svg>
